<mxfile host="app.diagrams.net" modified="2020-11-10T07:02:04.283Z" agent="5.0 (Windows)" etag="6vJxbbwr3reMGFFeOJ0U" version="13.9.2" type="github">
  <diagram id="IZZyyHPVDpo9NpMuoboe" name="Page-1">
    <mxGraphModel dx="609" dy="835" grid="1" gridSize="10" guides="1" tooltips="1" connect="1" arrows="1" fold="1" page="1" pageScale="1" pageWidth="827" pageHeight="1169" math="0" shadow="0">
      <root>
        <mxCell id="0" />
        <mxCell id="1" parent="0" />
        <mxCell id="SRhx6CK5bO02SiISKb7Z-1" value="Zutat" style="swimlane;fontStyle=1;align=center;verticalAlign=top;childLayout=stackLayout;horizontal=1;startSize=26;horizontalStack=0;resizeParent=1;resizeParentMax=0;resizeLast=0;collapsible=1;marginBottom=0;" parent="1" vertex="1">
          <mxGeometry x="85" y="240" width="150" height="164" as="geometry" />
        </mxCell>
        <mxCell id="SRhx6CK5bO02SiISKb7Z-2" value="- name: string&#xa;- unit : unit&#xa;- kalorien : Double &#xa;- label :Label&#xa;&#xa;&#xa;&#xa;&#xa;" style="text;strokeColor=none;fillColor=none;align=left;verticalAlign=top;spacingLeft=4;spacingRight=4;overflow=hidden;rotatable=0;points=[[0,0.5],[1,0.5]];portConstraint=eastwest;" parent="SRhx6CK5bO02SiISKb7Z-1" vertex="1">
          <mxGeometry y="26" width="150" height="104" as="geometry" />
        </mxCell>
        <mxCell id="SRhx6CK5bO02SiISKb7Z-3" value="" style="line;strokeWidth=1;fillColor=none;align=left;verticalAlign=middle;spacingTop=-1;spacingLeft=3;spacingRight=3;rotatable=0;labelPosition=right;points=[];portConstraint=eastwest;" parent="SRhx6CK5bO02SiISKb7Z-1" vertex="1">
          <mxGeometry y="130" width="150" height="8" as="geometry" />
        </mxCell>
        <mxCell id="SRhx6CK5bO02SiISKb7Z-4" value="+ method(type): type" style="text;strokeColor=none;fillColor=none;align=left;verticalAlign=top;spacingLeft=4;spacingRight=4;overflow=hidden;rotatable=0;points=[[0,0.5],[1,0.5]];portConstraint=eastwest;" parent="SRhx6CK5bO02SiISKb7Z-1" vertex="1">
          <mxGeometry y="138" width="150" height="26" as="geometry" />
        </mxCell>
        <mxCell id="SRhx6CK5bO02SiISKb7Z-5" value="Rezept" style="swimlane;fontStyle=1;align=center;verticalAlign=top;childLayout=stackLayout;horizontal=1;startSize=26;horizontalStack=0;resizeParent=1;resizeParentMax=0;resizeLast=0;collapsible=1;marginBottom=0;" parent="1" vertex="1">
          <mxGeometry x="360" y="200" width="240" height="280" as="geometry" />
        </mxCell>
        <mxCell id="SRhx6CK5bO02SiISKb7Z-6" value="- DiÃ¤t : String- herkunft :String&#xa;- RezeptType :enum&#xa;- id :int&#xa;- name : string&#xa;-schritte :Hashmap&lt;Integer,String&gt;&#xa;- zutat: ArrrayList&lt;Zutat&gt;- kalorien :Double&#xa;- portionen int&#xa;&#xa;&#xa;&#xa;&#xa;&#xa;&#xa;&#xa;&#xa;&#xa;&#xa;" style="text;strokeColor=none;fillColor=none;align=left;verticalAlign=top;spacingLeft=4;spacingRight=4;overflow=hidden;rotatable=0;points=[[0,0.5],[1,0.5]];portConstraint=eastwest;" parent="SRhx6CK5bO02SiISKb7Z-5" vertex="1">
          <mxGeometry y="26" width="240" height="154" as="geometry" />
        </mxCell>
        <mxCell id="SRhx6CK5bO02SiISKb7Z-7" value="" style="line;strokeWidth=1;fillColor=none;align=left;verticalAlign=middle;spacingTop=-1;spacingLeft=3;spacingRight=3;rotatable=0;labelPosition=right;points=[];portConstraint=eastwest;" parent="SRhx6CK5bO02SiISKb7Z-5" vertex="1">
          <mxGeometry y="180" width="240" height="8" as="geometry" />
        </mxCell>
        <mxCell id="SRhx6CK5bO02SiISKb7Z-8" value="+ add()&#xa;+ delete()&#xa;+ change()&#xa;+ read()&#xa;+Kalkukation()" style="text;strokeColor=none;fillColor=none;align=left;verticalAlign=top;spacingLeft=4;spacingRight=4;overflow=hidden;rotatable=0;points=[[0,0.5],[1,0.5]];portConstraint=eastwest;" parent="SRhx6CK5bO02SiISKb7Z-5" vertex="1">
          <mxGeometry y="188" width="240" height="92" as="geometry" />
        </mxCell>
        <mxCell id="SRhx6CK5bO02SiISKb7Z-49" value="Rating" style="swimlane;fontStyle=1;align=center;verticalAlign=top;childLayout=stackLayout;horizontal=1;startSize=26;horizontalStack=0;resizeParent=1;resizeParentMax=0;resizeLast=0;collapsible=1;marginBottom=0;" parent="1" vertex="1">
          <mxGeometry x="630" y="12" width="160" height="160" as="geometry" />
        </mxCell>
        <mxCell id="SRhx6CK5bO02SiISKb7Z-50" value="- gesund : Integer&#xa;- zustimmung: integer&#xa;" style="text;strokeColor=none;fillColor=none;align=left;verticalAlign=top;spacingLeft=4;spacingRight=4;overflow=hidden;rotatable=0;points=[[0,0.5],[1,0.5]];portConstraint=eastwest;" parent="SRhx6CK5bO02SiISKb7Z-49" vertex="1">
          <mxGeometry y="26" width="160" height="64" as="geometry" />
        </mxCell>
        <mxCell id="SRhx6CK5bO02SiISKb7Z-51" value="" style="line;strokeWidth=1;fillColor=none;align=left;verticalAlign=middle;spacingTop=-1;spacingLeft=3;spacingRight=3;rotatable=0;labelPosition=right;points=[];portConstraint=eastwest;" parent="SRhx6CK5bO02SiISKb7Z-49" vertex="1">
          <mxGeometry y="90" width="160" height="8" as="geometry" />
        </mxCell>
        <mxCell id="SRhx6CK5bO02SiISKb7Z-52" value="+ setGesund()&#xa;+ setZustimmung()&#xa;&#xa;&#xa;" style="text;strokeColor=none;fillColor=none;align=left;verticalAlign=top;spacingLeft=4;spacingRight=4;overflow=hidden;rotatable=0;points=[[0,0.5],[1,0.5]];portConstraint=eastwest;" parent="SRhx6CK5bO02SiISKb7Z-49" vertex="1">
          <mxGeometry y="98" width="160" height="62" as="geometry" />
        </mxCell>
        <mxCell id="SRhx6CK5bO02SiISKb7Z-61" value="Lifestyle" style="swimlane;fontStyle=1;align=center;verticalAlign=top;childLayout=stackLayout;horizontal=1;startSize=26;horizontalStack=0;resizeParent=1;resizeParentMax=0;resizeLast=0;collapsible=1;marginBottom=0;" parent="1" vertex="1">
          <mxGeometry x="100" y="470" width="160" height="86" as="geometry" />
        </mxCell>
        <mxCell id="SRhx6CK5bO02SiISKb7Z-62" value="+ field: type" style="text;strokeColor=none;fillColor=none;align=left;verticalAlign=top;spacingLeft=4;spacingRight=4;overflow=hidden;rotatable=0;points=[[0,0.5],[1,0.5]];portConstraint=eastwest;" parent="SRhx6CK5bO02SiISKb7Z-61" vertex="1">
          <mxGeometry y="26" width="160" height="26" as="geometry" />
        </mxCell>
        <mxCell id="SRhx6CK5bO02SiISKb7Z-63" value="" style="line;strokeWidth=1;fillColor=none;align=left;verticalAlign=middle;spacingTop=-1;spacingLeft=3;spacingRight=3;rotatable=0;labelPosition=right;points=[];portConstraint=eastwest;" parent="SRhx6CK5bO02SiISKb7Z-61" vertex="1">
          <mxGeometry y="52" width="160" height="8" as="geometry" />
        </mxCell>
        <mxCell id="SRhx6CK5bO02SiISKb7Z-64" value="+ method(type): type" style="text;strokeColor=none;fillColor=none;align=left;verticalAlign=top;spacingLeft=4;spacingRight=4;overflow=hidden;rotatable=0;points=[[0,0.5],[1,0.5]];portConstraint=eastwest;" parent="SRhx6CK5bO02SiISKb7Z-61" vertex="1">
          <mxGeometry y="60" width="160" height="26" as="geometry" />
        </mxCell>
        <mxCell id="SRhx6CK5bO02SiISKb7Z-65" value="Rezept&lt;&lt;Interface&gt;&gt;" style="swimlane;fontStyle=0;childLayout=stackLayout;horizontal=1;startSize=26;fillColor=none;horizontalStack=0;resizeParent=1;resizeParentMax=0;resizeLast=0;collapsible=1;marginBottom=0;" parent="1" vertex="1">
          <mxGeometry x="400" y="10" width="140" height="120" as="geometry" />
        </mxCell>
        <mxCell id="SRhx6CK5bO02SiISKb7Z-67" value="+ add()&#xa;+ delete()&#xa;+ change()&#xa;+ read()" style="text;strokeColor=none;fillColor=none;align=left;verticalAlign=top;spacingLeft=4;spacingRight=4;overflow=hidden;rotatable=0;points=[[0,0.5],[1,0.5]];portConstraint=eastwest;" parent="SRhx6CK5bO02SiISKb7Z-65" vertex="1">
          <mxGeometry y="26" width="140" height="94" as="geometry" />
        </mxCell>
        <mxCell id="SRhx6CK5bO02SiISKb7Z-77" value="" style="endArrow=diamondThin;endFill=1;endSize=24;html=1;entryX=0.993;entryY=0.731;entryDx=0;entryDy=0;entryPerimeter=0;exitX=0.004;exitY=0.422;exitDx=0;exitDy=0;exitPerimeter=0;" parent="1" source="SRhx6CK5bO02SiISKb7Z-6" target="SRhx6CK5bO02SiISKb7Z-2" edge="1">
          <mxGeometry width="160" relative="1" as="geometry">
            <mxPoint x="319.05" y="397.076" as="sourcePoint" />
            <mxPoint x="240.00000000000006" y="239.99600000000012" as="targetPoint" />
            <Array as="points">
              <mxPoint x="320" y="291" />
              <mxPoint x="320" y="342" />
              <mxPoint x="290" y="342" />
              <mxPoint x="279" y="342" />
            </Array>
          </mxGeometry>
        </mxCell>
        <mxCell id="SRhx6CK5bO02SiISKb7Z-105" value="1" style="edgeLabel;html=1;align=center;verticalAlign=middle;resizable=0;points=[];" parent="SRhx6CK5bO02SiISKb7Z-77" vertex="1" connectable="0">
          <mxGeometry x="-0.8738" y="1" relative="1" as="geometry">
            <mxPoint x="-8.08" y="9.38" as="offset" />
          </mxGeometry>
        </mxCell>
        <mxCell id="SRhx6CK5bO02SiISKb7Z-106" value="1..*" style="edgeLabel;html=1;align=center;verticalAlign=middle;resizable=0;points=[];" parent="SRhx6CK5bO02SiISKb7Z-77" vertex="1" connectable="0">
          <mxGeometry x="0.5534" y="3" relative="1" as="geometry">
            <mxPoint x="11.1" y="14.99" as="offset" />
          </mxGeometry>
        </mxCell>
        <mxCell id="SRhx6CK5bO02SiISKb7Z-78" value="" style="endArrow=diamondThin;endFill=1;endSize=24;html=1;" parent="1" edge="1">
          <mxGeometry width="160" relative="1" as="geometry">
            <mxPoint x="733" y="172" as="sourcePoint" />
            <mxPoint x="600" y="290" as="targetPoint" />
            <Array as="points">
              <mxPoint x="733" y="290" />
              <mxPoint x="660" y="290" />
            </Array>
          </mxGeometry>
        </mxCell>
        <mxCell id="SRhx6CK5bO02SiISKb7Z-103" value="1" style="edgeLabel;html=1;align=center;verticalAlign=middle;resizable=0;points=[];" parent="SRhx6CK5bO02SiISKb7Z-78" vertex="1" connectable="0">
          <mxGeometry x="-0.8805" relative="1" as="geometry">
            <mxPoint as="offset" />
          </mxGeometry>
        </mxCell>
        <mxCell id="SRhx6CK5bO02SiISKb7Z-104" value="1" style="edgeLabel;html=1;align=center;verticalAlign=middle;resizable=0;points=[];" parent="SRhx6CK5bO02SiISKb7Z-78" vertex="1" connectable="0">
          <mxGeometry x="0.6414" y="3" relative="1" as="geometry">
            <mxPoint as="offset" />
          </mxGeometry>
        </mxCell>
        <mxCell id="SRhx6CK5bO02SiISKb7Z-81" value="Label" style="swimlane;fontStyle=1;align=center;verticalAlign=top;childLayout=stackLayout;horizontal=1;startSize=26;horizontalStack=0;resizeParent=1;resizeParentMax=0;resizeLast=0;collapsible=1;marginBottom=0;" parent="1" vertex="1">
          <mxGeometry x="160" y="22" width="160" height="140" as="geometry" />
        </mxCell>
        <mxCell id="SRhx6CK5bO02SiISKb7Z-82" value="- lefestyle : enum&#xa;- laktosefreie: boolean " style="text;strokeColor=none;fillColor=none;align=left;verticalAlign=top;spacingLeft=4;spacingRight=4;overflow=hidden;rotatable=0;points=[[0,0.5],[1,0.5]];portConstraint=eastwest;" parent="SRhx6CK5bO02SiISKb7Z-81" vertex="1">
          <mxGeometry y="26" width="160" height="54" as="geometry" />
        </mxCell>
        <mxCell id="SRhx6CK5bO02SiISKb7Z-83" value="" style="line;strokeWidth=1;fillColor=none;align=left;verticalAlign=middle;spacingTop=-1;spacingLeft=3;spacingRight=3;rotatable=0;labelPosition=right;points=[];portConstraint=eastwest;" parent="SRhx6CK5bO02SiISKb7Z-81" vertex="1">
          <mxGeometry y="80" width="160" height="8" as="geometry" />
        </mxCell>
        <mxCell id="SRhx6CK5bO02SiISKb7Z-84" value="+ setLifestyle()&#xa;+ setLaktozeFrei()&#xa;" style="text;strokeColor=none;fillColor=none;align=left;verticalAlign=top;spacingLeft=4;spacingRight=4;overflow=hidden;rotatable=0;points=[[0,0.5],[1,0.5]];portConstraint=eastwest;" parent="SRhx6CK5bO02SiISKb7Z-81" vertex="1">
          <mxGeometry y="88" width="160" height="52" as="geometry" />
        </mxCell>
        <mxCell id="SRhx6CK5bO02SiISKb7Z-99" value="" style="endArrow=none;html=1;edgeStyle=orthogonalEdgeStyle;" parent="1" source="SRhx6CK5bO02SiISKb7Z-1" target="SRhx6CK5bO02SiISKb7Z-81" edge="1">
          <mxGeometry relative="1" as="geometry">
            <mxPoint x="380" y="260" as="sourcePoint" />
            <mxPoint x="540" y="260" as="targetPoint" />
            <Array as="points">
              <mxPoint x="130" y="92" />
            </Array>
          </mxGeometry>
        </mxCell>
        <mxCell id="SRhx6CK5bO02SiISKb7Z-102" value="Hat" style="edgeLabel;html=1;align=center;verticalAlign=middle;resizable=0;points=[];" parent="SRhx6CK5bO02SiISKb7Z-99" vertex="1" connectable="0">
          <mxGeometry x="-0.6966" y="2" relative="1" as="geometry">
            <mxPoint as="offset" />
          </mxGeometry>
        </mxCell>
        <mxCell id="SRhx6CK5bO02SiISKb7Z-107" value="" style="endArrow=none;html=1;edgeStyle=orthogonalEdgeStyle;exitX=1;exitY=0.5;exitDx=0;exitDy=0;" parent="1" source="SRhx6CK5bO02SiISKb7Z-62" edge="1">
          <mxGeometry relative="1" as="geometry">
            <mxPoint x="390" y="648" as="sourcePoint" />
            <mxPoint x="360" y="430" as="targetPoint" />
            <Array as="points">
              <mxPoint x="260" y="500" />
              <mxPoint x="310" y="500" />
              <mxPoint x="310" y="434" />
              <mxPoint x="360" y="434" />
            </Array>
          </mxGeometry>
        </mxCell>
        <mxCell id="SRhx6CK5bO02SiISKb7Z-108" value="berechnen" style="edgeLabel;html=1;align=center;verticalAlign=middle;resizable=0;points=[];" parent="SRhx6CK5bO02SiISKb7Z-107" vertex="1" connectable="0">
          <mxGeometry x="-0.6966" y="2" relative="1" as="geometry">
            <mxPoint x="32" y="-38" as="offset" />
          </mxGeometry>
        </mxCell>
        <mxCell id="SRhx6CK5bO02SiISKb7Z-109" value="1" style="edgeLabel;html=1;align=center;verticalAlign=middle;resizable=0;points=[];" parent="SRhx6CK5bO02SiISKb7Z-107" vertex="1" connectable="0">
          <mxGeometry x="0.8101" y="-1" relative="1" as="geometry">
            <mxPoint as="offset" />
          </mxGeometry>
        </mxCell>
        <mxCell id="SRhx6CK5bO02SiISKb7Z-110" value="1..*" style="edgeLabel;html=1;align=center;verticalAlign=middle;resizable=0;points=[];" parent="1" vertex="1" connectable="0">
          <mxGeometry x="285.06160069699035" y="359.9926845896107" as="geometry" />
        </mxCell>
        <mxCell id="SRhx6CK5bO02SiISKb7Z-111" value="1..*" style="text;html=1;align=center;verticalAlign=middle;resizable=0;points=[];autosize=1;" parent="1" vertex="1">
          <mxGeometry x="275" y="480" width="30" height="20" as="geometry" />
        </mxCell>
        <mxCell id="gb2XQUWt7gZtMW36fQ8k-5" value="DatenbankReturnData&lt;T&gt;" style="swimlane;fontStyle=1;align=center;verticalAlign=top;childLayout=stackLayout;horizontal=1;startSize=26;horizontalStack=0;resizeParent=1;resizeParentMax=0;resizeLast=0;collapsible=1;marginBottom=0;" vertex="1" parent="1">
          <mxGeometry x="285.06" y="770" width="160" height="86" as="geometry" />
        </mxCell>
        <mxCell id="gb2XQUWt7gZtMW36fQ8k-6" value="- dataÂ  :T" style="text;strokeColor=none;fillColor=none;align=left;verticalAlign=top;spacingLeft=4;spacingRight=4;overflow=hidden;rotatable=0;points=[[0,0.5],[1,0.5]];portConstraint=eastwest;" vertex="1" parent="gb2XQUWt7gZtMW36fQ8k-5">
          <mxGeometry y="26" width="160" height="26" as="geometry" />
        </mxCell>
        <mxCell id="gb2XQUWt7gZtMW36fQ8k-7" value="" style="line;strokeWidth=1;fillColor=none;align=left;verticalAlign=middle;spacingTop=-1;spacingLeft=3;spacingRight=3;rotatable=0;labelPosition=right;points=[];portConstraint=eastwest;" vertex="1" parent="gb2XQUWt7gZtMW36fQ8k-5">
          <mxGeometry y="52" width="160" height="8" as="geometry" />
        </mxCell>
        <mxCell id="gb2XQUWt7gZtMW36fQ8k-8" value="+ method(type): type" style="text;strokeColor=none;fillColor=none;align=left;verticalAlign=top;spacingLeft=4;spacingRight=4;overflow=hidden;rotatable=0;points=[[0,0.5],[1,0.5]];portConstraint=eastwest;" vertex="1" parent="gb2XQUWt7gZtMW36fQ8k-5">
          <mxGeometry y="60" width="160" height="26" as="geometry" />
        </mxCell>
        <mxCell id="gb2XQUWt7gZtMW36fQ8k-9" value="" style="endArrow=none;html=1;edgeStyle=orthogonalEdgeStyle;entryX=0.593;entryY=1.053;entryDx=0;entryDy=0;entryPerimeter=0;" edge="1" parent="1" source="SRhx6CK5bO02SiISKb7Z-5" target="SRhx6CK5bO02SiISKb7Z-67">
          <mxGeometry relative="1" as="geometry">
            <mxPoint x="460" y="240" as="sourcePoint" />
            <mxPoint x="490" y="92" as="targetPoint" />
            <Array as="points">
              <mxPoint x="460" y="160" />
              <mxPoint x="483" y="160" />
            </Array>
          </mxGeometry>
        </mxCell>
        <mxCell id="gb2XQUWt7gZtMW36fQ8k-10" value="Hat" style="edgeLabel;html=1;align=center;verticalAlign=middle;resizable=0;points=[];" vertex="1" connectable="0" parent="gb2XQUWt7gZtMW36fQ8k-9">
          <mxGeometry x="-0.6966" y="2" relative="1" as="geometry">
            <mxPoint as="offset" />
          </mxGeometry>
        </mxCell>
        <mxCell id="gb2XQUWt7gZtMW36fQ8k-17" style="edgeStyle=orthogonalEdgeStyle;rounded=0;orthogonalLoop=1;jettySize=auto;html=1;" edge="1" parent="1" source="gb2XQUWt7gZtMW36fQ8k-13" target="gb2XQUWt7gZtMW36fQ8k-6">
          <mxGeometry relative="1" as="geometry" />
        </mxCell>
        <mxCell id="gb2XQUWt7gZtMW36fQ8k-13" value="DatenbankReturn" style="swimlane;fontStyle=1;align=center;verticalAlign=top;childLayout=stackLayout;horizontal=1;startSize=26;horizontalStack=0;resizeParent=1;resizeParentMax=0;resizeLast=0;collapsible=1;marginBottom=0;" vertex="1" parent="1">
          <mxGeometry x="100" y="620" width="150" height="144" as="geometry" />
        </mxCell>
        <mxCell id="gb2XQUWt7gZtMW36fQ8k-14" value="- rc : boolean&#xa;- meldung :string&#xa;" style="text;strokeColor=none;fillColor=none;align=left;verticalAlign=top;spacingLeft=4;spacingRight=4;overflow=hidden;rotatable=0;points=[[0,0.5],[1,0.5]];portConstraint=eastwest;" vertex="1" parent="gb2XQUWt7gZtMW36fQ8k-13">
          <mxGeometry y="26" width="150" height="84" as="geometry" />
        </mxCell>
        <mxCell id="gb2XQUWt7gZtMW36fQ8k-15" value="" style="line;strokeWidth=1;fillColor=none;align=left;verticalAlign=middle;spacingTop=-1;spacingLeft=3;spacingRight=3;rotatable=0;labelPosition=right;points=[];portConstraint=eastwest;" vertex="1" parent="gb2XQUWt7gZtMW36fQ8k-13">
          <mxGeometry y="110" width="150" height="8" as="geometry" />
        </mxCell>
        <mxCell id="gb2XQUWt7gZtMW36fQ8k-16" value="+ method(type): type" style="text;strokeColor=none;fillColor=none;align=left;verticalAlign=top;spacingLeft=4;spacingRight=4;overflow=hidden;rotatable=0;points=[[0,0.5],[1,0.5]];portConstraint=eastwest;" vertex="1" parent="gb2XQUWt7gZtMW36fQ8k-13">
          <mxGeometry y="118" width="150" height="26" as="geometry" />
        </mxCell>
        <mxCell id="gb2XQUWt7gZtMW36fQ8k-18" value="User" style="swimlane;fontStyle=1;align=center;verticalAlign=top;childLayout=stackLayout;horizontal=1;startSize=26;horizontalStack=0;resizeParent=1;resizeParentMax=0;resizeLast=0;collapsible=1;marginBottom=0;" vertex="1" parent="1">
          <mxGeometry x="540" y="570" width="190" height="144" as="geometry" />
        </mxCell>
        <mxCell id="gb2XQUWt7gZtMW36fQ8k-19" value="- name : String&#xa;- id : integer&#xa;&#xa;-f avReceptsÂ  : Arraylist&lt;Rezept&gt;&#xa;" style="text;strokeColor=none;fillColor=none;align=left;verticalAlign=top;spacingLeft=4;spacingRight=4;overflow=hidden;rotatable=0;points=[[0,0.5],[1,0.5]];portConstraint=eastwest;" vertex="1" parent="gb2XQUWt7gZtMW36fQ8k-18">
          <mxGeometry y="26" width="190" height="84" as="geometry" />
        </mxCell>
        <mxCell id="gb2XQUWt7gZtMW36fQ8k-20" value="" style="line;strokeWidth=1;fillColor=none;align=left;verticalAlign=middle;spacingTop=-1;spacingLeft=3;spacingRight=3;rotatable=0;labelPosition=right;points=[];portConstraint=eastwest;" vertex="1" parent="gb2XQUWt7gZtMW36fQ8k-18">
          <mxGeometry y="110" width="190" height="8" as="geometry" />
        </mxCell>
        <mxCell id="gb2XQUWt7gZtMW36fQ8k-21" value="+ method(type): type" style="text;strokeColor=none;fillColor=none;align=left;verticalAlign=top;spacingLeft=4;spacingRight=4;overflow=hidden;rotatable=0;points=[[0,0.5],[1,0.5]];portConstraint=eastwest;" vertex="1" parent="gb2XQUWt7gZtMW36fQ8k-18">
          <mxGeometry y="118" width="190" height="26" as="geometry" />
        </mxCell>
      </root>
    </mxGraphModel>
  </diagram>
</mxfile>
